<svg xmlns="http://www.w3.org/2000/svg" height="24px" viewBox="0 -960 960 960" width="24px"><path d="M120-160v-112q0-34 17.5-62.5T184-378q62-31 126-46.5T440-440q20 0 40 1.5t40 4.5q-4 58 21 109.5t73 84.5v80H120ZM760-40l-60-60v-186q-44-13-72-49.5T600-420q0-58 41-99t99-41q58 0 99 41t41 99q0 45-25.5 80T790-290l50 50-60 60 60 60-80 80ZM440-480q-66 0-113-47t-47-113q0-66 47-113t113-47q66 0 113 47t47 113q0 66-47 113t-113 47Zm328.5 68.5Q780-423 780-440t-11.5-28.5Q757-480 740-480t-28.5 11.5Q700-457 700-440t11.5 28.5Q723-400 740-400t28.5-11.5Z"/></svg>